<svg width="32" height="32" viewBox="0 0 32 32" fill="none" xmlns="http://www.w3.org/2000/svg">
<path d="M7.00001 4C6.87368 4 6.7494 4.00699 6.62631 4.01953C6.381 4.04453 6.1428 4.09422 5.91407 4.16536C4.76482 4.52283 3.85617 5.43148 3.49871 6.58073C3.42756 6.80946 3.37788 7.04765 3.35287 7.29297C3.35283 7.2934 3.35292 7.29384 3.35287 7.29427C3.34042 7.41694 3.33334 7.54077 3.33334 7.66667V9V24.3333C3.33334 26.3465 4.98683 28 7.00001 28H25C27.0132 28 28.6667 26.3465 28.6667 24.3333V9V7.66667C28.6667 7.5404 28.6598 7.41608 28.6471 7.29297C28.6221 7.04765 28.5725 6.80946 28.5013 6.58073C28.1438 5.43148 27.2352 4.52283 26.0859 4.16536C25.8572 4.09422 25.619 4.04453 25.3737 4.01953C25.3733 4.01949 25.3728 4.01957 25.3724 4.01953C25.2497 4.00693 25.1258 4 25 4H7.00001ZM7.00001 6C7.55201 6 8.00001 6.448 8.00001 7C8.00001 7.552 7.55201 8 7.00001 8C6.44801 8 6.00001 7.552 6.00001 7C6.00001 6.448 6.44801 6 7.00001 6ZM10.3333 6C10.8853 6 11.3333 6.448 11.3333 7C11.3333 7.552 10.8853 8 10.3333 8C9.78134 8 9.33334 7.552 9.33334 7C9.33334 6.448 9.78134 6 10.3333 6ZM5.33334 10H26.6667V24.3333C26.6667 25.2655 25.9322 26 25 26H7.00001C6.06786 26 5.33334 25.2655 5.33334 24.3333V10ZM13.9271 11.3411C13.3429 11.3062 12.7842 11.3902 12.2682 11.5677C11.9889 11.6637 11.9098 12.0244 12.1185 12.2331L14.2188 14.3333C14.7208 14.8353 14.8097 15.6599 14.3477 16.1992C14.0797 16.5112 13.7067 16.6667 13.3333 16.6667C12.992 16.6667 12.6513 16.5367 12.3906 16.276L10.2331 14.1185C10.0244 13.9098 9.66372 13.9889 9.56772 14.2682C9.33105 14.9562 9.26134 15.7215 9.41668 16.5195C9.76734 18.3229 11.29 19.7401 13.1133 19.9661C13.7653 20.0468 14.3908 19.9776 14.9675 19.7956L19.2526 24.0807C19.6433 24.4714 20.1547 24.6667 20.6667 24.6667C21.1787 24.6667 21.6901 24.4714 22.0807 24.0807C22.8621 23.3001 22.8621 22.0333 22.0807 21.2526L17.7956 16.9674C17.9769 16.3908 18.0468 15.7659 17.9662 15.1133C17.7402 13.2899 16.3235 11.7673 14.5195 11.4167C14.32 11.3778 14.1218 11.3528 13.9271 11.3411Z" fill="#E83E3E"/>
</svg>
