<svg width="32" height="32" viewBox="0 0 32 32" fill="none" xmlns="http://www.w3.org/2000/svg">
<path d="M6.99998 4C5.48398 4 4.17988 4.92539 3.62238 6.24089C3.57592 6.35052 3.53445 6.46208 3.49868 6.57682V6.57812C3.4629 6.69286 3.432 6.80917 3.40753 6.92839C3.38306 7.04763 3.36539 7.16855 3.35284 7.29167V7.29297C3.3403 7.41605 3.33331 7.54033 3.33331 7.66667V9V24.3333C3.33331 26.3553 4.97865 28 6.99998 28H21.3515C21.3442 27.9687 21.3328 27.9396 21.3268 27.9076L20.9804 26H6.99998C6.08065 26 5.33331 25.252 5.33331 24.3333V10H26.6666V18.7826L28.6666 20.3385V9V7.66667C28.6666 7.54033 28.6597 7.41475 28.6471 7.29167C28.6346 7.16855 28.6169 7.04763 28.5924 6.92839C28.568 6.80917 28.5371 6.69155 28.5013 6.57682C28.4655 6.46208 28.424 6.35052 28.3776 6.24089C27.8201 4.92539 26.516 4 25 4H6.99998ZM6.99998 6C7.55198 6 7.99998 6.448 7.99998 7C7.99998 7.552 7.55198 8 6.99998 8C6.44798 8 5.99998 7.552 5.99998 7C5.99998 6.448 6.44798 6 6.99998 6ZM10.3333 6C10.8853 6 11.3333 6.448 11.3333 7C11.3333 7.552 10.8853 8 10.3333 8C9.78131 8 9.33331 7.552 9.33331 7C9.33331 6.448 9.78131 6 10.3333 6ZM14.3333 6H25C25.552 6 26 6.448 26 7C26 7.552 25.552 8 25 8H14.3333C13.7813 8 13.3333 7.552 13.3333 7C13.3333 6.448 13.7813 6 14.3333 6ZM8.33331 12.6667C8.0681 12.6667 7.81377 12.7721 7.62624 12.9596C7.4387 13.1471 7.33334 13.4015 7.33331 13.6667V19C7.33334 19.2652 7.4387 19.5195 7.62624 19.7071C7.81377 19.8946 8.0681 20 8.33331 20H15C15.2652 20 15.5195 19.8946 15.7071 19.7071C15.8946 19.5195 16 19.2652 16 19V13.6667C16 13.4015 15.8946 13.1471 15.7071 12.9596C15.5195 12.7721 15.2652 12.6667 15 12.6667H8.33331ZM19 12.6667C18.448 12.6667 18 13.114 18 13.6667V23C18 23.5527 18.448 24 19 24H20.6159L20.2526 22H20V14.6667H22.6666V16.0469C23.0646 16.1182 23.4486 16.2798 23.7786 16.5365L24.6666 17.2279V13.6667C24.6666 13.114 24.2186 12.6667 23.6666 12.6667H19ZM9.33331 14.6667H14V18H9.33331V14.6667ZM22.2838 17.3346C22.0436 17.3207 21.7996 17.3788 21.5846 17.5091C21.1539 17.7698 20.9295 18.2683 21.0195 18.7643L22.638 27.6693C22.7287 28.1686 23.1224 28.5591 23.6224 28.6471C23.693 28.6605 23.7646 28.6667 23.8346 28.6667C24.2606 28.6667 24.6615 28.4418 24.8815 28.0651L25.8125 26.3945L28.1484 30.1901C28.2149 30.3065 28.3041 30.4084 28.4107 30.4897C28.5173 30.571 28.6392 30.63 28.7691 30.6632C28.899 30.6964 29.0342 30.7032 29.1668 30.6831C29.2993 30.6631 29.4265 30.6165 29.5407 30.5463C29.6549 30.4761 29.7538 30.3837 29.8316 30.2745C29.9094 30.1653 29.9644 30.0415 29.9934 29.9106C30.0224 29.7798 30.0248 29.6444 30.0004 29.5125C29.976 29.3807 29.9254 29.2551 29.8515 29.1432L27.5078 25.3333H29.5117C30.0284 25.328 30.4857 25.0922 30.651 24.6029C30.8164 24.1135 30.6528 23.5725 30.2448 23.2552L22.9596 17.5885C22.7609 17.4339 22.5241 17.3486 22.2838 17.3346ZM8.33331 22C8.2008 21.9981 8.06924 22.0226 7.94627 22.072C7.8233 22.1214 7.71138 22.1948 7.61701 22.2878C7.52264 22.3809 7.4477 22.4918 7.39656 22.614C7.34541 22.7363 7.31907 22.8675 7.31907 23C7.31907 23.1325 7.34541 23.2637 7.39656 23.386C7.4477 23.5082 7.52264 23.6191 7.61701 23.7122C7.71138 23.8052 7.8233 23.8786 7.94627 23.928C8.06924 23.9774 8.2008 24.0019 8.33331 24H15C15.1325 24.0019 15.2641 23.9774 15.387 23.928C15.51 23.8786 15.6219 23.8052 15.7163 23.7122C15.8107 23.6191 15.8856 23.5082 15.9367 23.386C15.9879 23.2637 16.0142 23.1325 16.0142 23C16.0142 22.8675 15.9879 22.7363 15.9367 22.614C15.8856 22.4918 15.8107 22.3809 15.7163 22.2878C15.6219 22.1948 15.51 22.1214 15.387 22.072C15.2641 22.0226 15.1325 21.9981 15 22H8.33331Z" fill="#E83E3E"/>
</svg>
