<svg width="32" height="32" viewBox="0 0 32 32" fill="none" xmlns="http://www.w3.org/2000/svg">
<path d="M7.00065 4C6.87432 4 6.75004 4.00699 6.62695 4.01953C6.38164 4.04453 6.14344 4.09422 5.91471 4.16536C4.76546 4.52283 3.85681 5.43148 3.49935 6.58073C3.4282 6.80946 3.37852 7.04765 3.35352 7.29297C3.35347 7.2934 3.35356 7.29384 3.35352 7.29427C3.34106 7.41694 3.33398 7.54077 3.33398 7.66667V9V24.3333C3.33398 26.3465 4.98747 28 7.00065 28H25.0007C27.0138 28 28.6673 26.3465 28.6673 24.3333V9V7.66667C28.6673 7.5404 28.6605 7.41608 28.6478 7.29297C28.6228 7.04765 28.5731 6.80946 28.502 6.58073C28.1445 5.43148 27.2358 4.52283 26.0866 4.16536C25.8579 4.09422 25.6197 4.04453 25.3743 4.01953C25.3739 4.01949 25.3735 4.01957 25.373 4.01953C25.2503 4.00693 25.1265 4 25.0007 4H7.00065ZM7.00065 6C7.55265 6 8.00065 6.448 8.00065 7C8.00065 7.552 7.55265 8 7.00065 8C6.44865 8 6.00065 7.552 6.00065 7C6.00065 6.448 6.44865 6 7.00065 6ZM10.334 6C10.886 6 11.334 6.448 11.334 7C11.334 7.552 10.886 8 10.334 8C9.78198 8 9.33398 7.552 9.33398 7C9.33398 6.448 9.78198 6 10.334 6ZM14.334 6H25.0007C25.5527 6 26.0007 6.448 26.0007 7C26.0007 7.552 25.5527 8 25.0007 8H14.334C13.782 8 13.334 7.552 13.334 7C13.334 6.448 13.782 6 14.334 6ZM5.33398 10H26.6673V24.3333C26.6673 25.2655 25.9328 26 25.0007 26H7.00065C6.0685 26 5.33398 25.2655 5.33398 24.3333V10ZM16.0007 13.3333C11.222 13.3333 7.33398 17.2213 7.33398 22V22.3333C7.33398 22.886 7.78132 23.3333 8.33398 23.3333C8.88665 23.3333 9.33398 22.886 9.33398 22.3333V22C9.33398 18.324 12.3247 15.3333 16.0007 15.3333C16.8053 15.3333 17.5737 15.4841 18.2884 15.7461L19.8079 14.2266C18.6566 13.6606 17.368 13.3333 16.0007 13.3333ZM20.9811 15.3242C20.7214 15.3318 20.4748 15.4401 20.2936 15.6263L16.5163 19.4036C16.3482 19.3579 16.1749 19.3342 16.0007 19.3333C15.4702 19.3333 14.9615 19.544 14.5864 19.9191C14.2114 20.2942 14.0007 20.8029 14.0007 21.3333C14.0007 21.8638 14.2114 22.3725 14.5864 22.7475C14.9615 23.1226 15.4702 23.3333 16.0007 23.3333C16.3073 23.3332 16.6098 23.2625 16.8847 23.1268C17.1597 22.9911 17.3998 22.794 17.5864 22.5507C17.773 22.3075 17.9012 22.0245 17.9611 21.7238C18.021 21.4231 18.0109 21.1126 17.9316 20.8164L21.7077 17.0404C21.8519 16.8999 21.9504 16.7191 21.9903 16.5217C22.0301 16.3243 22.0094 16.1194 21.9309 15.934C21.8524 15.7486 21.7197 15.5911 21.5502 15.4823C21.3808 15.3735 21.1824 15.3184 20.9811 15.3242ZM23.2949 17.3385L21.8418 18.7917C22.3671 19.7443 22.6673 20.8373 22.6673 22V22.3333C22.6673 22.886 23.1147 23.3333 23.6673 23.3333C24.22 23.3333 24.6673 22.886 24.6673 22.3333V22C24.6673 20.2833 24.1589 18.6859 23.2949 17.3385Z" fill="#111111"/>
</svg>
