<svg width="32" height="32" viewBox="0 0 32 32" fill="none" xmlns="http://www.w3.org/2000/svg">
<path d="M6.99998 4C6.87365 4 6.74937 4.00699 6.62628 4.01953C6.38097 4.04453 6.14277 4.09422 5.91404 4.16536C4.76479 4.52283 3.85614 5.43148 3.49868 6.58073C3.42753 6.80946 3.37785 7.04765 3.35284 7.29297C3.3528 7.2934 3.35289 7.29384 3.35284 7.29427C3.34039 7.41694 3.33331 7.54077 3.33331 7.66667V9V24.3333C3.33331 26.3465 4.9868 28 6.99998 28H25C27.0132 28 28.6666 26.3465 28.6666 24.3333V9V7.66667C28.6666 7.5404 28.6598 7.41608 28.6471 7.29297C28.6221 7.04765 28.5724 6.80946 28.5013 6.58073C28.1438 5.43148 27.2352 4.52283 26.0859 4.16536C25.8572 4.09422 25.619 4.04453 25.3737 4.01953C25.3732 4.01949 25.3728 4.01957 25.3724 4.01953C25.2497 4.00693 25.1258 4 25 4H6.99998ZM6.99998 6C7.55198 6 7.99998 6.448 7.99998 7C7.99998 7.552 7.55198 8 6.99998 8C6.44798 8 5.99998 7.552 5.99998 7C5.99998 6.448 6.44798 6 6.99998 6ZM10.3333 6C10.8853 6 11.3333 6.448 11.3333 7C11.3333 7.552 10.8853 8 10.3333 8C9.78131 8 9.33331 7.552 9.33331 7C9.33331 6.448 9.78131 6 10.3333 6ZM14.3333 6H25C25.552 6 26 6.448 26 7C26 7.552 25.552 8 25 8H14.3333C13.7813 8 13.3333 7.552 13.3333 7C13.3333 6.448 13.7813 6 14.3333 6ZM5.33331 10H26.6666V24.3333C26.6666 25.2655 25.9321 26 25 26H6.99998C6.06783 26 5.33331 25.2655 5.33331 24.3333V10ZM16 13.3333C11.2213 13.3333 7.33331 17.2213 7.33331 22V22.3333C7.33331 22.886 7.78065 23.3333 8.33331 23.3333C8.88598 23.3333 9.33331 22.886 9.33331 22.3333V22C9.33331 18.324 12.324 15.3333 16 15.3333C16.8046 15.3333 17.5731 15.4841 18.2877 15.7461L19.8073 14.2266C18.6559 13.6606 17.3673 13.3333 16 13.3333ZM20.9804 15.3242C20.7207 15.3318 20.4742 15.4401 20.2929 15.6263L16.5156 19.4036C16.3475 19.3579 16.1742 19.3342 16 19.3333C15.4695 19.3333 14.9608 19.544 14.5858 19.9191C14.2107 20.2942 14 20.8029 14 21.3333C14 21.8638 14.2107 22.3725 14.5858 22.7475C14.9608 23.1226 15.4695 23.3333 16 23.3333C16.3066 23.3332 16.6091 23.2625 16.884 23.1268C17.159 22.9911 17.3991 22.794 17.5857 22.5507C17.7724 22.3075 17.9006 22.0245 17.9604 21.7238C18.0203 21.4231 18.0102 21.1126 17.931 20.8164L21.707 17.0404C21.8513 16.8999 21.9498 16.7191 21.9896 16.5217C22.0294 16.3243 22.0087 16.1194 21.9302 15.934C21.8517 15.7486 21.719 15.5911 21.5496 15.4823C21.3801 15.3735 21.1817 15.3184 20.9804 15.3242ZM23.2942 17.3385L21.8411 18.7917C22.3665 19.7443 22.6666 20.8373 22.6666 22V22.3333C22.6666 22.886 23.114 23.3333 23.6666 23.3333C24.2193 23.3333 24.6666 22.886 24.6666 22.3333V22C24.6666 20.2833 24.1582 18.6859 23.2942 17.3385Z" fill="#E83E3E"/>
</svg>
