<svg width="79" height="32" viewBox="0 0 79 32" fill="none" xmlns="http://www.w3.org/2000/svg">
<path d="M0.071167 9.22801C0.561262 9.19891 1.18109 9.15522 1.93064 9.09702C2.70903 9.03878 3.54507 8.99509 4.43877 8.96599C5.36129 8.93685 6.32708 8.90775 7.33608 8.87861C8.37394 8.84951 9.39735 8.83496 10.4064 8.83496C13.6641 8.83496 16.0281 9.3008 17.4984 10.2326C18.9686 11.1351 19.7038 12.5036 19.7038 14.3379C19.7038 15.357 19.4011 16.3469 18.7956 17.3078C18.1902 18.2395 17.1524 18.9383 15.6821 19.4041V19.5788C17.4695 19.7826 18.7236 20.3649 19.4443 21.3258C20.165 22.2866 20.5254 23.4658 20.5254 24.8634C20.5254 27.018 19.6029 28.6485 17.7578 29.7549C15.9415 30.8322 12.9433 31.3709 8.76315 31.3709C8.15772 31.3709 7.45141 31.3563 6.64418 31.3272C5.8658 31.3272 5.07301 31.2981 4.26581 31.2398C3.45859 31.2107 2.6802 31.167 1.93064 31.1088C1.18109 31.0797 0.561262 31.036 0.071167 30.9778V9.22801ZM5.5631 26.6541C5.76491 26.6832 6.02439 26.7123 6.34149 26.7414C6.65863 26.7705 6.99013 26.7996 7.33608 26.8287C7.68203 26.8287 8.02799 26.8287 8.37394 26.8287C8.71989 26.8287 9.02258 26.8287 9.28206 26.8287C11.2424 26.8287 12.6695 26.6104 13.5632 26.1736C14.4569 25.7369 14.9037 25.0672 14.9037 24.1646C14.9037 23.4076 14.5145 22.7961 13.7361 22.3303C12.9866 21.8353 11.6605 21.5878 9.75775 21.5878H5.5631V26.6541ZM9.84423 18.0939C11.2857 18.0939 12.3812 17.8755 13.1308 17.4388C13.9091 16.9729 14.2983 16.3906 14.2983 15.6918C14.2983 14.9348 13.9379 14.367 13.2172 13.9885C12.4965 13.5809 11.2568 13.3771 9.49827 13.3771C8.83522 13.3771 8.08565 13.3916 7.2496 13.4207C6.44241 13.4499 5.88024 13.479 5.5631 13.5081V18.0939H9.84423Z" fill="#F9F6F6"/>
<path d="M43.9467 28.9255C42.7647 29.828 41.3807 30.5123 39.7952 30.9781C38.2096 31.4149 36.5519 31.6333 34.8221 31.6333C32.9483 31.6333 31.2762 31.3566 29.8059 30.8034C28.3644 30.2502 27.1392 29.4786 26.1302 28.4887C25.15 27.4696 24.4004 26.2468 23.8815 24.8201C23.3626 23.3934 23.1031 21.8211 23.1031 20.1032C23.1031 18.2689 23.4058 16.6384 24.0113 15.2117C24.6167 13.7851 25.4527 12.5767 26.5194 11.5868C27.6149 10.5968 28.8978 9.85435 30.3681 9.35938C31.8384 8.8353 33.4384 8.57324 35.1681 8.57324C36.7825 8.57324 38.2961 8.76251 39.7087 9.14101C41.1213 9.51955 42.2024 9.88349 42.9518 10.2329V17.9195H38.1951V13.9015C37.3014 13.6977 36.4078 13.5958 35.514 13.5958C34.7069 13.5958 33.8996 13.7268 33.0924 13.9888C32.314 14.2218 31.6077 14.6148 30.9734 15.1681C30.3681 15.6921 29.8636 16.3618 29.4599 17.1771C29.0852 17.9923 28.8978 18.9677 28.8978 20.1032C28.8978 21.035 29.0563 21.8939 29.3735 22.68C29.6906 23.4662 30.1374 24.1504 30.714 24.7327C31.2906 25.315 31.9969 25.7809 32.8329 26.1303C33.6978 26.4506 34.6492 26.6107 35.687 26.6107C37.3303 26.6107 38.6708 26.3778 39.7087 25.9119C40.7754 25.4461 41.5682 25.0384 42.0871 24.689L43.9467 28.9255Z" fill="#F9F6F6"/>
<path d="M66.9785 28.7066C66.6038 29.056 66.1137 29.4054 65.5083 29.7548C64.9317 30.0751 64.2397 30.3808 63.4328 30.6719C62.6542 30.9631 61.7894 31.1961 60.838 31.3707C59.8867 31.5454 58.8778 31.6328 57.8111 31.6328C55.9658 31.6328 54.3081 31.3707 52.8379 30.8467C51.3965 30.3225 50.1713 29.5655 49.1621 28.5756C48.1533 27.5565 47.3747 26.3482 46.8271 24.9506C46.3079 23.5239 46.0486 21.908 46.0486 20.1028C46.0486 18.1811 46.3515 16.5069 46.9568 15.0803C47.5622 13.6244 48.3839 12.4161 49.4219 11.4553C50.4882 10.4944 51.7281 9.7811 53.1408 9.31526C54.5531 8.82029 56.0811 8.57278 57.7245 8.57278C58.8199 8.57278 59.9441 8.71836 61.0974 9.00951C62.2795 9.30067 63.3605 9.81024 64.3407 10.5381C65.3208 11.2369 66.1137 12.1832 66.7191 13.377C67.3532 14.5707 67.6705 16.0848 67.6705 17.9191C67.6705 19.1711 67.5264 20.5249 67.2379 21.9808H51.6702C51.6994 22.9125 51.8865 23.6986 52.2325 24.3392C52.6072 24.9797 53.0829 25.5038 53.6596 25.9114C54.265 26.3191 54.9426 26.6248 55.692 26.8286C56.4702 27.0033 57.2919 27.0907 58.1571 27.0907C59.8867 27.0907 61.2994 26.8868 62.3948 26.4792C63.519 26.0716 64.4273 25.5766 65.1192 24.9943L66.9785 28.7066ZM57.6379 13.1149C56.8885 13.1149 56.1821 13.2168 55.5188 13.4206C54.856 13.6244 54.2506 13.9302 53.7027 14.3378C53.1839 14.7163 52.7513 15.1967 52.4053 15.7791C52.0597 16.3614 51.8578 17.0165 51.7999 17.7444H62.4379C62.4379 16.3177 62.0344 15.1967 61.2271 14.3815C60.4489 13.5371 59.2525 13.1149 57.6379 13.1149ZM48.5567 3.59393C48.5567 2.60398 48.8452 1.81784 49.4219 1.23552C50.0273 0.624079 50.8342 0.318359 51.8434 0.318359C52.8235 0.318359 53.6017 0.624079 54.1784 1.23552C54.755 1.81784 55.0432 2.60398 55.0432 3.59393C55.0432 4.52563 54.755 5.29721 54.1784 5.90867C53.6017 6.49099 52.8235 6.78214 51.8434 6.78214C50.8342 6.78214 50.0273 6.49099 49.4219 5.90867C48.8452 5.29721 48.5567 4.52563 48.5567 3.59393ZM59.7139 3.59393C59.7139 2.60398 60.002 1.81784 60.5786 1.23552C61.1553 0.624079 61.9335 0.318359 62.9136 0.318359C63.8937 0.318359 64.6866 0.624079 65.292 1.23552C65.8974 1.81784 66.2003 2.60398 66.2003 3.59393C66.2003 4.52563 65.8974 5.29721 65.292 5.90867C64.6866 6.49099 63.8937 6.78214 62.9136 6.78214C61.9335 6.78214 61.1553 6.49099 60.5786 5.90867C60.002 5.29721 59.7139 4.52563 59.7139 3.59393Z" fill="#F9F6F6"/>
<path d="M71.7187 28.1396C71.7187 27.1205 72.0359 26.3198 72.67 25.7375C73.3041 25.126 74.1402 24.8203 75.1782 24.8203C76.2736 24.8203 77.1384 25.126 77.7729 25.7375C78.407 26.3198 78.7243 27.1205 78.7243 28.1396C78.7243 29.1586 78.407 29.9739 77.7729 30.5853C77.1384 31.1968 76.2736 31.5025 75.1782 31.5025C74.1402 31.5025 73.3041 31.1968 72.67 30.5853C72.0359 29.9739 71.7187 29.1586 71.7187 28.1396Z" fill="#F9F6F6"/>
</svg>
