<svg width="100" height="40" viewBox="0 0 100 40" fill="none" xmlns="http://www.w3.org/2000/svg">
<g clip-path="url(#clip0_77_2568)">
<path d="M0.0898438 11.5353C0.708563 11.4989 1.49106 11.4443 2.43733 11.3716C3.42 11.2988 4.47546 11.2442 5.60371 11.2078C6.76835 11.1714 7.9876 11.135 9.26142 11.0986C10.5717 11.0622 11.8637 11.044 13.1375 11.044C17.2502 11.044 20.2346 11.6263 22.0907 12.791C23.9469 13.9192 24.875 15.6298 24.875 17.9227C24.875 19.1965 24.4928 20.434 23.7285 21.635C22.9642 22.7996 21.654 23.6731 19.7978 24.2555V24.4738C22.0543 24.7286 23.6375 25.4565 24.5474 26.6575C25.4573 27.8586 25.9122 29.3326 25.9122 31.0795C25.9122 33.7728 24.7476 35.8109 22.4183 37.1939C20.1254 38.5405 16.3403 39.2139 11.063 39.2139C10.2987 39.2139 9.40702 39.1957 8.38792 39.1593C7.40526 39.1593 6.4044 39.1229 5.38536 39.0501C4.36628 39.0137 3.38361 38.9591 2.43733 38.8863C1.49106 38.8499 0.708563 38.7953 0.0898438 38.7225V11.5353ZM7.02312 33.3179C7.2779 33.3542 7.60547 33.3906 8.00579 33.427C8.40616 33.4634 8.82467 33.4998 9.26142 33.5362C9.69816 33.5362 10.1349 33.5362 10.5717 33.5362C11.0084 33.5362 11.3905 33.5362 11.7181 33.5362C14.193 33.5362 15.9945 33.2633 17.1228 32.7173C18.251 32.1714 18.8152 31.3343 18.8152 30.2061C18.8152 29.2598 18.3238 28.4955 17.3412 27.9132C16.3949 27.2945 14.7207 26.9851 12.3186 26.9851H7.02312V33.3179ZM12.4278 22.6177C14.2476 22.6177 15.6306 22.3447 16.5769 21.7988C17.5596 21.2164 18.0509 20.4885 18.0509 19.615C18.0509 18.6688 17.5959 17.9591 16.6861 17.4859C15.7762 16.9764 14.2112 16.7217 11.9911 16.7217C11.154 16.7217 10.2077 16.7398 9.15224 16.7762C8.1332 16.8126 7.4235 16.849 7.02312 16.8854V22.6177H12.4278Z" fill="#111111"/>
<path d="M55.4804 36.1566C53.9882 37.2848 52.241 38.1401 50.2393 38.7224C48.2375 39.2684 46.1449 39.5413 43.9611 39.5413C41.5955 39.5413 39.4845 39.1956 37.6284 38.504C35.8086 37.8125 34.2618 36.848 32.988 35.6106C31.7506 34.3368 30.8043 32.8082 30.1492 31.0248C29.494 29.2415 29.1665 27.2761 29.1665 25.1288C29.1665 22.8359 29.5486 20.7978 30.313 19.0144C31.0772 17.2311 32.1327 15.7207 33.4793 14.4832C34.8623 13.2458 36.4819 12.3177 38.3381 11.699C40.1942 11.0439 42.2142 10.7163 44.3979 10.7163C46.436 10.7163 48.3468 10.9529 50.1301 11.426C51.9135 11.8992 53.2783 12.3541 54.2244 12.7909V22.3992H48.2194V17.3766C47.0911 17.1219 45.9629 16.9945 44.8346 16.9945C43.8156 16.9945 42.7965 17.1583 41.7774 17.4858C40.7948 17.777 39.903 18.2683 39.1023 18.9598C38.3381 19.6149 37.7012 20.452 37.1916 21.4711C36.7185 22.4902 36.4819 23.7094 36.4819 25.1288C36.4819 26.2935 36.6821 27.3671 37.0825 28.3498C37.4828 29.3325 38.0469 30.1877 38.7748 30.9157C39.5027 31.6436 40.3944 32.2259 41.4499 32.6626C42.5417 33.063 43.7428 33.2631 45.053 33.2631C47.1275 33.2631 48.8199 32.972 50.1301 32.3896C51.4767 31.8074 52.4776 31.2978 53.1327 30.8611L55.4804 36.1566Z" fill="#111111"/>
<path d="M84.5568 35.8837C84.0837 36.3204 83.4651 36.7572 82.7008 37.1939C81.9728 37.5943 81.0992 37.9764 80.0805 38.3404C79.0976 38.7043 78.0059 38.9955 76.8048 39.2139C75.6037 39.4322 74.3301 39.5414 72.9834 39.5414C70.6538 39.5414 68.5611 39.2139 66.7051 38.5588C64.8853 37.9036 63.3387 36.9574 62.0645 35.7199C60.7909 34.4461 59.808 32.9357 59.1168 31.1887C58.4613 29.4054 58.1339 27.3854 58.1339 25.1289C58.1339 22.7268 58.5163 20.6341 59.2805 18.8508C60.0448 17.031 61.0821 15.5206 62.3925 14.3196C63.7387 13.1185 65.304 12.2268 67.0875 11.6445C68.8704 11.0258 70.7995 10.7164 72.8741 10.7164C74.2571 10.7164 75.6763 10.8984 77.1323 11.2623C78.6245 11.6263 79.9893 12.2633 81.2267 13.1731C82.464 14.0466 83.465 15.2294 84.2293 16.7217C85.0299 18.2139 85.4304 20.1064 85.4304 22.3993C85.4304 23.9643 85.2485 25.6566 84.8843 27.4764H65.2309C65.2677 28.6411 65.504 29.6237 65.9408 30.4244C66.4139 31.2251 67.0144 31.8802 67.7424 32.3898C68.5067 32.8993 69.3621 33.2814 70.3083 33.5362C71.2907 33.7546 72.328 33.8638 73.4202 33.8638C75.6037 33.8638 77.3872 33.609 78.7701 33.0995C80.1893 32.5899 81.336 31.9712 82.2096 31.2433L84.5568 35.8837ZM72.7648 16.3941C71.8187 16.3941 70.9269 16.5215 70.0896 16.7762C69.2528 17.031 68.4885 17.4132 67.7968 17.9227C67.1419 18.3958 66.5957 18.9963 66.1589 19.7243C65.7226 20.4522 65.4677 21.271 65.3947 22.1809H78.8245C78.8245 20.3975 78.3152 18.9963 77.296 17.9773C76.3136 16.9218 74.8032 16.3941 72.7648 16.3941ZM61.3003 4.49286C61.3003 3.25542 61.6645 2.27275 62.3925 1.54485C63.1568 0.780553 64.1755 0.398403 65.4496 0.398403C66.6869 0.398403 67.6693 0.780553 68.3973 1.54485C69.1253 2.27275 69.4891 3.25542 69.4891 4.49286C69.4891 5.65749 69.1253 6.62197 68.3973 7.38629C67.6693 8.11419 66.6869 8.47813 65.4496 8.47813C64.1755 8.47813 63.1568 8.11419 62.3925 7.38629C61.6645 6.62197 61.3003 5.65749 61.3003 4.49286ZM75.3856 4.49286C75.3856 3.25542 75.7493 2.27275 76.4773 1.54485C77.2053 0.780553 78.1877 0.398403 79.4251 0.398403C80.6624 0.398403 81.6635 0.780553 82.4277 1.54485C83.192 2.27275 83.5744 3.25542 83.5744 4.49286C83.5744 5.65749 83.192 6.62197 82.4277 7.38629C81.6635 8.11419 80.6624 8.47813 79.4251 8.47813C78.1877 8.47813 77.2053 8.11419 76.4773 7.38629C75.7493 6.62197 75.3856 5.65749 75.3856 4.49286Z" fill="#111111"/>
<path d="M90.541 35.174C90.541 33.9002 90.9415 32.8993 91.7421 32.1714C92.5426 31.4071 93.5981 31.025 94.9085 31.025C96.2914 31.025 97.3831 31.4071 98.1842 32.1714C98.9847 32.8993 99.3853 33.9002 99.3853 35.174C99.3853 36.4478 98.9847 37.4669 98.1842 38.2312C97.3831 38.9955 96.2914 39.3777 94.9085 39.3777C93.5981 39.3777 92.5426 38.9955 91.7421 38.2312C90.9415 37.4669 90.541 36.4478 90.541 35.174Z" fill="#111111"/>
</g>
<defs>
<clipPath id="clip0_77_2568">
<rect width="99.7333" height="40" fill="white"/>
</clipPath>
</defs>
</svg>
